<svg width="164" height="163" viewBox="0 0 164 163" fill="none" xmlns="http://www.w3.org/2000/svg">
<path d="M81.4996 134.508C110.775 134.508 134.508 110.776 134.508 81.5C134.508 52.2244 110.775 28.4919 81.4996 28.4919C52.224 28.4919 28.4915 52.2244 28.4915 81.5C28.4915 110.776 52.224 134.508 81.4996 134.508Z" fill="#EBEDF0" fill-opacity="0.09"/>
<path d="M161.012 150.41L159.898 154.89C158.997 158.494 155.764 161.012 152.053 161.012H74.5554C70.8448 161.012 67.6113 158.494 66.7102 154.89L65.597 150.41H76.1986H150.41H161.012Z" fill="#2AE9DD"/>
<path d="M150.41 139.809V150.41H76.1982V139.809V100.053H150.41V139.809ZM129.206 139.809V137.158C129.206 132.759 122.077 129.207 113.304 129.207C117.704 129.207 121.255 125.656 121.255 121.256V118.606C121.255 114.206 117.704 110.654 113.304 110.654C108.904 110.654 105.353 114.206 105.353 118.606V121.256C105.353 125.656 108.904 129.207 113.304 129.207C104.531 129.207 97.4015 132.759 97.4015 137.158V139.809H129.206Z" fill="white"/>
<path d="M129.206 137.158V139.809H97.4015V137.158C97.4015 132.759 104.531 129.207 113.304 129.207C122.077 129.207 129.206 132.759 129.206 137.158Z" fill="#2AE9DD"/>
<path d="M121.256 118.605V121.256C121.256 125.656 117.704 129.207 113.305 129.207C108.905 129.207 105.353 125.656 105.353 121.256V118.605C105.353 114.206 108.905 110.654 113.305 110.654C117.704 110.654 121.256 114.206 121.256 118.605Z" fill="white"/>
<path d="M97.4018 52.3454L96.2886 56.8246C95.3875 60.4291 92.154 62.947 88.4434 62.947H10.9456C7.23499 62.947 4.00149 60.4291 3.10035 56.8246L1.98718 52.3454H12.5888H86.8002H97.4018Z" fill="#2AE9DD"/>
<path d="M86.8005 41.7438V52.3455H12.5892V41.7438V1.98773H86.8005V41.7438ZM65.5973 41.7438V39.0934C65.5973 34.6937 58.4677 31.1422 49.6949 31.1422C54.0945 31.1422 57.6461 27.5907 57.6461 23.191V20.5406C57.6461 16.1409 54.0945 12.5894 49.6949 12.5894C45.2952 12.5894 41.7436 16.1409 41.7436 20.5406V23.191C41.7436 27.5907 45.2952 31.1422 49.6949 31.1422C40.922 31.1422 33.7924 34.6937 33.7924 39.0934V41.7438H65.5973Z" fill="white"/>
<path d="M65.5974 39.0933V41.7437H33.7925V39.0933C33.7925 34.6936 40.9221 31.1421 49.6949 31.1421C58.4678 31.1421 65.5974 34.6936 65.5974 39.0933Z" fill="#2AE9DD"/>
<path d="M57.646 20.5405V23.1909C57.646 27.5905 54.0944 31.1421 49.6947 31.1421C45.2951 31.1421 41.7435 27.5905 41.7435 23.1909V20.5405C41.7435 16.1408 45.2951 12.5892 49.6947 12.5892C54.0944 12.5892 57.646 16.1408 57.646 20.5405Z" fill="white"/>
<path d="M152.053 163H74.5555C69.9239 163 65.9053 159.863 64.7822 155.37L63.669 150.888C63.5199 150.295 63.6557 149.665 64.0334 149.185C64.4111 148.704 64.9876 148.423 65.6005 148.423H161.015C161.628 148.423 162.204 148.704 162.582 149.185C162.96 149.668 163.092 150.295 162.947 150.888L161.833 155.367C160.704 159.863 156.685 163 152.053 163ZM68.1382 152.398L68.6385 154.409C69.3177 157.126 71.7494 159.024 74.5555 159.024H152.053C154.856 159.024 157.291 157.126 157.97 154.406L158.471 152.398H68.1382Z" fill="#303E58"/>
<path d="M150.41 141.797C149.314 141.797 148.422 140.906 148.422 139.809V102.041H78.1865V139.809C78.1865 140.906 77.2953 141.797 76.1987 141.797C75.1021 141.797 74.2109 140.906 74.2109 139.809V100.053C74.2109 98.9562 75.1021 98.065 76.1987 98.065H150.41C151.507 98.065 152.398 98.9562 152.398 100.053V139.809C152.398 140.906 151.507 141.797 150.41 141.797Z" fill="#303E58"/>
<path d="M113.304 131.195C107.825 131.195 103.365 126.736 103.365 121.256V118.606C103.365 113.126 107.825 108.667 113.304 108.667C118.784 108.667 123.243 113.126 123.243 118.606V121.256C123.243 126.736 118.784 131.195 113.304 131.195ZM113.304 112.642C110.015 112.642 107.341 115.319 107.341 118.606V121.256C107.341 124.542 110.015 127.219 113.304 127.219C116.594 127.219 119.268 124.542 119.268 121.256V118.606C119.268 115.319 116.594 112.642 113.304 112.642Z" fill="#303E58"/>
<path d="M129.207 141.797C128.11 141.797 127.219 140.906 127.219 139.809V137.159C127.219 134.342 121.269 131.195 113.304 131.195C105.34 131.195 99.3898 134.342 99.3898 137.159V139.809C99.3898 140.906 98.4986 141.797 97.402 141.797C96.3054 141.797 95.4142 140.906 95.4142 139.809V137.159C95.4142 131.493 103.104 127.219 113.304 127.219C123.505 127.219 131.195 131.493 131.195 137.159V139.809C131.195 140.906 130.303 141.797 129.207 141.797Z" fill="#303E58"/>
<path d="M88.4436 64.9349H10.9457C6.31414 64.9349 2.29546 61.7975 1.17235 57.305L0.0591804 52.8225C-0.089905 52.2295 0.0459283 51.6 0.423611 51.1197C0.797981 50.6393 1.37444 50.3577 1.98735 50.3577H97.402C98.0149 50.3577 98.5914 50.6393 98.969 51.1197C99.3467 51.6034 99.4792 52.2295 99.3335 52.8225L98.2203 57.3017C97.0939 61.7975 93.0752 64.9349 88.4436 64.9349ZM4.52843 54.3333L5.02869 56.3443C5.70786 59.0609 8.13961 60.9593 10.9457 60.9593H88.4436C91.2464 60.9593 93.6815 59.0609 94.3606 56.341L94.8609 54.3333H4.52843Z" fill="#303E58"/>
<path d="M86.8003 43.7317C85.7037 43.7317 84.8125 42.8405 84.8125 41.7439V3.97561H14.5767V41.7439C14.5767 42.8405 13.6855 43.7317 12.5889 43.7317C11.4923 43.7317 10.6011 42.8405 10.6011 41.7439V1.9878C10.6011 0.891199 11.4923 0 12.5889 0H86.8003C87.8969 0 88.7881 0.891199 88.7881 1.9878V41.7439C88.7881 42.8405 87.8969 43.7317 86.8003 43.7317Z" fill="#303E58"/>
<path d="M49.6945 33.13C44.2148 33.13 39.7555 28.6706 39.7555 23.1909V20.5405C39.7555 15.0608 44.2148 10.6015 49.6945 10.6015C55.1742 10.6015 59.6335 15.0608 59.6335 20.5405V23.1909C59.6335 28.6706 55.1742 33.13 49.6945 33.13ZM49.6945 14.5771C46.4047 14.5771 43.7311 17.254 43.7311 20.5405V23.1909C43.7311 26.4774 46.4047 29.1543 49.6945 29.1543C52.9843 29.1543 55.6579 26.4774 55.6579 23.1909V20.5405C55.6579 17.254 52.9843 14.5771 49.6945 14.5771Z" fill="#303E58"/>
<path d="M65.5971 43.7316C64.5005 43.7316 63.6093 42.8404 63.6093 41.7438V39.0934C63.6093 36.2773 57.6592 33.13 49.6947 33.13C41.7302 33.13 35.7801 36.2773 35.7801 39.0934V41.7438C35.7801 42.8404 34.8889 43.7316 33.7922 43.7316C32.6956 43.7316 31.8044 42.8404 31.8044 41.7438V39.0934C31.8044 33.4281 39.4939 29.1544 49.6947 29.1544C59.8954 29.1544 67.5849 33.4281 67.5849 39.0934V41.7438C67.5849 42.8404 66.6937 43.7316 65.5971 43.7316Z" fill="#303E58"/>
<path d="M108.004 26.5042H100.052V30.4798H108.004V26.5042Z" fill="#18366B"/>
<path d="M121.256 26.5042H113.304V30.4798H121.256V26.5042Z" fill="#18366B"/>
<path d="M144.447 86.801H140.471V32.4676C140.471 31.371 139.58 30.4798 138.483 30.4798H126.557V26.5042H138.483C141.773 26.5042 144.447 29.1811 144.447 32.4676V86.801Z" fill="#18366B"/>
<path d="M142.459 88.7885C141.949 88.7885 141.442 88.593 141.054 88.2054L133.103 80.2542C132.328 79.479 132.328 78.22 133.103 77.4448C133.878 76.6695 135.137 76.6695 135.916 77.4448L142.459 83.988L149.005 77.4415C149.781 76.6662 151.04 76.6662 151.818 77.4415C152.593 78.2167 152.593 79.4757 151.818 80.2509L143.867 88.2021C143.476 88.5931 142.969 88.7885 142.459 88.7885Z" fill="#18366B"/>
<path d="M62.9469 132.52H54.9957V136.496H62.9469V132.52Z" fill="#18366B"/>
<path d="M49.6947 132.52H41.7435V136.496H49.6947V132.52Z" fill="#18366B"/>
<path d="M36.4425 136.496H28.4913C23.0116 136.496 18.5523 132.037 18.5523 126.557V76.1992H22.5279V126.557C22.5279 129.843 25.2015 132.52 28.4913 132.52H36.4425V136.496Z" fill="#18366B"/>
<path d="M28.4912 86.1382C27.981 86.1382 27.4741 85.9427 27.0865 85.5551L20.54 79.0119L13.9935 85.5584C13.2182 86.3336 11.9593 86.3336 11.1807 85.5584C10.4055 84.7831 10.4055 83.5242 11.1807 82.749L19.132 74.7977C19.9072 74.0225 21.1661 74.0225 21.9447 74.7977L29.8959 82.749C30.6712 83.5242 30.6712 84.7831 29.8959 85.5584C29.5083 85.9427 29.0014 86.1382 28.4912 86.1382Z" fill="#18366B"/>
</svg>
