<svg width="109" height="109" viewBox="0 0 109 109" fill="none" xmlns="http://www.w3.org/2000/svg">
<g clip-path="url(#clip0)">
<path d="M54.5 89.947C74.0769 89.947 89.9472 74.0768 89.9472 54.4999C89.9472 34.923 74.0769 19.0527 54.5 19.0527C34.9231 19.0527 19.0529 34.923 19.0529 54.4999C19.0529 74.0768 34.9231 89.947 54.5 89.947Z" fill="#EBEDF0"/>
<path d="M107.671 100.581L106.926 103.576C106.324 105.987 104.162 107.67 101.68 107.67H49.8565C47.3752 107.67 45.213 105.987 44.6104 103.576L43.866 100.581H50.9554H100.581H107.671Z" fill="#5DFAF0"/>
<path d="M100.581 93.4918V100.581H50.9553V93.4918V66.9064H100.581V93.4918ZM86.4025 93.4918V91.7194C86.4025 88.7773 81.6348 86.4023 75.7683 86.4023C78.7104 86.4023 81.0854 84.0274 81.0854 81.0852V79.3129C81.0854 76.3708 78.7104 73.9958 75.7683 73.9958C72.8262 73.9958 70.4513 76.3708 70.4513 79.3129V81.0852C70.4513 84.0274 72.8262 86.4023 75.7683 86.4023C69.9018 86.4023 65.1342 88.7773 65.1342 91.7194V93.4918H86.4025Z" fill="white"/>
<path d="M86.4025 91.7194V93.4918H65.1342V91.7194C65.1342 88.7773 69.9018 86.4023 75.7683 86.4023C81.6348 86.4023 86.4025 88.7773 86.4025 91.7194Z" fill="#5DFAF0"/>
<path d="M81.0854 79.3129V81.0853C81.0854 84.0274 78.7104 86.4024 75.7683 86.4024C72.8262 86.4024 70.4512 84.0274 70.4512 81.0853V79.3129C70.4512 76.3708 72.8262 73.9958 75.7683 73.9958C78.7104 73.9958 81.0854 76.3708 81.0854 79.3129Z" fill="white"/>
<path d="M65.1342 35.004L64.3898 37.9993C63.7872 40.4097 61.6249 42.0935 59.1436 42.0935H7.31991C4.83861 42.0935 2.67634 40.4097 2.07374 37.9993L1.32935 35.004H8.41878H58.0448H65.1342Z" fill="#5DFAF0"/>
<path d="M58.0448 27.9143V35.0038H8.41876V27.9143V1.32898H58.0448V27.9143ZM43.8659 27.9143V26.142C43.8659 23.1999 39.0983 20.8249 33.2318 20.8249C36.1739 20.8249 38.5488 18.45 38.5488 15.5078V13.7355C38.5488 10.7934 36.1739 8.41841 33.2318 8.41841C30.2897 8.41841 27.9147 10.7934 27.9147 13.7355V15.5078C27.9147 18.45 30.2897 20.8249 33.2318 20.8249C27.3653 20.8249 22.5976 23.1999 22.5976 26.142V27.9143H43.8659Z" fill="white"/>
<path d="M43.866 26.1419V27.9143H22.5977V26.1419C22.5977 23.1998 27.3654 20.8248 33.2319 20.8248C39.0984 20.8248 43.866 23.1998 43.866 26.1419Z" fill="#5DFAF0"/>
<path d="M38.5489 13.7355V15.5079C38.5489 18.45 36.174 20.825 33.2319 20.825C30.2898 20.825 27.9148 18.45 27.9148 15.5079V13.7355C27.9148 10.7934 30.2898 8.41846 33.2319 8.41846C36.174 8.41846 38.5489 10.7934 38.5489 13.7355Z" fill="white"/>
<path d="M101.68 109H49.8564C46.7592 109 44.0719 106.902 43.3209 103.898L42.5765 100.9C42.4768 100.504 42.5676 100.083 42.8202 99.7615C43.0727 99.4403 43.4582 99.252 43.8681 99.252H107.673C108.083 99.252 108.468 99.4403 108.721 99.7615C108.973 100.085 109.062 100.504 108.965 100.9L108.22 103.896C107.465 106.902 104.777 109 101.68 109ZM45.5651 101.91L45.8996 103.255C46.3538 105.072 47.9799 106.341 49.8564 106.341H101.68C103.554 106.341 105.183 105.072 105.637 103.253L105.971 101.91H45.5651Z" fill="#303E58"/>
<path d="M100.581 94.8213C99.8479 94.8213 99.252 94.2253 99.252 93.492V68.2359H52.2845V93.492C52.2845 94.2253 51.6886 94.8213 50.9552 94.8213C50.2219 94.8213 49.626 94.2253 49.626 93.492V66.9067C49.626 66.1733 50.2219 65.5774 50.9552 65.5774H100.581C101.315 65.5774 101.911 66.1733 101.911 66.9067V93.492C101.911 94.2253 101.315 94.8213 100.581 94.8213Z" fill="#303E58"/>
<path d="M75.7683 87.7319C72.1039 87.7319 69.1219 84.7499 69.1219 81.0856V79.3132C69.1219 75.6489 72.1039 72.6669 75.7683 72.6669C79.4326 72.6669 82.4146 75.6489 82.4146 79.3132V81.0856C82.4146 84.7499 79.4326 87.7319 75.7683 87.7319ZM75.7683 75.3254C73.5684 75.3254 71.7805 77.1155 71.7805 79.3132V81.0856C71.7805 83.2833 73.5684 85.0734 75.7683 85.0734C77.9682 85.0734 79.7561 83.2833 79.7561 81.0856V79.3132C79.7561 77.1155 77.9682 75.3254 75.7683 75.3254Z" fill="#303E58"/>
<path d="M86.4024 94.8212C85.6691 94.8212 85.0731 94.2253 85.0731 93.4919V91.7196C85.0731 89.8365 81.0942 87.7318 75.7682 87.7318C70.4423 87.7318 66.4633 89.8365 66.4633 91.7196V93.4919C66.4633 94.2253 65.8674 94.8212 65.1341 94.8212C64.4008 94.8212 63.8048 94.2253 63.8048 93.4919V91.7196C63.8048 87.9312 68.9469 85.0732 75.7682 85.0732C82.5896 85.0732 87.7316 87.9312 87.7316 91.7196V93.4919C87.7316 94.2253 87.1357 94.8212 86.4024 94.8212Z" fill="#303E58"/>
<path d="M59.1436 43.423H7.31986C4.22267 43.423 1.53533 41.325 0.784291 38.3208L0.0399004 35.3233C-0.0597947 34.9268 0.0310386 34.5058 0.2836 34.1846C0.533945 33.8634 0.919433 33.675 1.32929 33.675H65.1342C65.544 33.675 65.9295 33.8634 66.1821 34.1846C66.4346 34.5081 66.5232 34.9268 66.4258 35.3233L65.6814 38.3186C64.9281 41.325 62.2408 43.423 59.1436 43.423ZM3.02854 36.3336L3.36307 37.6784C3.81724 39.495 5.44338 40.7645 7.31986 40.7645H59.1436C61.0179 40.7645 62.6462 39.495 63.1004 37.6761L63.4349 36.3336H3.02854Z" fill="#303E58"/>
<path d="M58.0447 29.2439C57.3114 29.2439 56.7154 28.6479 56.7154 27.9146V2.65854H9.74795V27.9146C9.74795 28.6479 9.152 29.2439 8.41868 29.2439C7.68537 29.2439 7.08942 28.6479 7.08942 27.9146V1.32927C7.08942 0.595955 7.68537 0 8.41868 0H58.0447C58.778 0 59.374 0.595955 59.374 1.32927V27.9146C59.374 28.6479 58.778 29.2439 58.0447 29.2439Z" fill="#303E58"/>
<path d="M33.2317 22.1545C29.5673 22.1545 26.5853 19.1725 26.5853 15.5082V13.7358C26.5853 10.0715 29.5673 7.08948 33.2317 7.08948C36.896 7.08948 39.878 10.0715 39.878 13.7358V15.5082C39.878 19.1725 36.896 22.1545 33.2317 22.1545ZM33.2317 9.74801C31.0317 9.74801 29.2439 11.5381 29.2439 13.7358V15.5082C29.2439 17.7059 31.0317 19.496 33.2317 19.496C35.4316 19.496 37.2195 17.7059 37.2195 15.5082V13.7358C37.2195 11.5381 35.4316 9.74801 33.2317 9.74801Z" fill="#303E58"/>
<path d="M43.8658 29.2438C43.1324 29.2438 42.5365 28.6479 42.5365 27.9146V26.1422C42.5365 24.2591 38.5575 22.1544 33.2316 22.1544C27.9057 22.1544 23.9267 24.2591 23.9267 26.1422V27.9146C23.9267 28.6479 23.3308 29.2438 22.5975 29.2438C21.8641 29.2438 21.2682 28.6479 21.2682 27.9146V26.1422C21.2682 22.3538 26.4102 19.4958 33.2316 19.4958C40.053 19.4958 45.195 22.3538 45.195 26.1422V27.9146C45.195 28.6479 44.5991 29.2438 43.8658 29.2438Z" fill="#303E58"/>
<path d="M72.2235 17.7236H66.9064V20.3822H72.2235V17.7236Z" fill="#979FAF"/>
<path d="M81.0853 17.7236H75.7682V20.3822H81.0853V17.7236Z" fill="#979FAF"/>
<path d="M96.5935 58.0448H93.935V21.7114C93.935 20.9781 93.3391 20.3822 92.6057 20.3822H84.6301V17.7236H92.6057C94.8057 17.7236 96.5935 19.5137 96.5935 21.7114V58.0448Z" fill="#979FAF"/>
<path d="M95.2644 59.3737C94.9232 59.3737 94.5842 59.243 94.325 58.9838L89.008 53.6667C88.4895 53.1483 88.4895 52.3064 89.008 51.788C89.5264 51.2696 90.3682 51.2696 90.8889 51.788L95.2644 56.1635L99.6421 51.7858C100.161 51.2674 101.002 51.2674 101.523 51.7858C102.041 52.3042 102.041 53.1461 101.523 53.6645L96.2059 58.9816C95.9445 59.243 95.6055 59.3737 95.2644 59.3737Z" fill="#979FAF"/>
<path d="M42.0936 88.6177H36.7765V91.2762H42.0936V88.6177Z" fill="#979FAF"/>
<path d="M33.2317 88.6177H27.9146V91.2762H33.2317V88.6177Z" fill="#979FAF"/>
<path d="M24.3699 91.2766H19.0528C15.3885 91.2766 12.4065 88.2946 12.4065 84.6302V50.9554H15.065V84.6302C15.065 86.828 16.8529 88.618 19.0528 88.618H24.3699V91.2766Z" fill="#979FAF"/>
<path d="M19.0528 57.6017C18.7116 57.6017 18.3726 57.471 18.1134 57.2118L13.7357 52.8363L9.35798 57.214C8.83957 57.7324 7.9977 57.7324 7.47707 57.214C6.95865 56.6956 6.95865 55.8537 7.47707 55.3353L12.7941 50.0182C13.3126 49.4998 14.1544 49.4998 14.6751 50.0182L19.9921 55.3353C20.5105 55.8537 20.5105 56.6956 19.9921 57.214C19.7329 57.471 19.394 57.6017 19.0528 57.6017Z" fill="#979FAF"/>
</g>
<defs>
<clipPath id="clip0">
<rect width="109" height="109" fill="white"/>
</clipPath>
</defs>
</svg>
