<svg width="108" height="95" viewBox="0 0 108 95" fill="none" xmlns="http://www.w3.org/2000/svg">
<g clip-path="url(#clip0)">
<path d="M29.2465 1.85083H70.71V73.6715H14.4381V16.6592L29.2465 1.85083Z" fill="white"/>
<path d="M85.5186 24.8035L60.3443 49.9778C60.3443 45.8906 57.0272 42.5736 52.9401 42.5736L78.1144 17.3993L82.5569 21.8418L85.5186 24.8035Z" fill="#5DFAF0"/>
<path d="M84.0378 73.6713V78.1138C84.0378 79.7427 82.7051 81.0754 81.0761 81.0754H49.9785H35.1701H4.07249C2.44356 81.0754 1.11081 79.7427 1.11081 78.1138V73.6713H8.51501H84.0378Z" fill="#5DFAF0"/>
<path d="M52.8069 52.8066L48.4977 54.4207L50.1118 50.1115C51.6075 50.1115 52.8069 51.3109 52.8069 52.8066Z" fill="#5DFAF0"/>
<path d="M49.9783 81.0757L51.4592 89.9607H33.6891L35.17 81.0757H49.9783Z" fill="#5DFAF0"/>
<path d="M29.2468 1.11035V15.9187H14.4384L29.2468 1.11035Z" fill="#5DFAF0"/>
<path d="M81.076 82.1865H4.07231C1.82699 82.1865 0 80.3595 0 78.1142V24.804C0 22.5587 1.82699 20.7317 4.07231 20.7317H8.51483C9.12752 20.7317 9.62546 21.2296 9.62546 21.8423C9.62546 22.455 9.12752 22.9529 8.51483 22.9529H4.07231C3.05238 22.9529 2.22126 23.7841 2.22126 24.804V78.1142C2.22126 79.1341 3.05238 79.9653 4.07231 79.9653H81.076C82.0959 79.9653 82.927 79.1341 82.927 78.1142V35.1699C82.927 34.5572 83.4249 34.0592 84.0376 34.0592C84.6503 34.0592 85.1483 34.5572 85.1483 35.1699V78.1142C85.1483 80.3595 83.3213 82.1865 81.076 82.1865Z" fill="#303E58"/>
<path d="M60.3441 91.0717H24.804C24.1913 91.0717 23.6934 90.5738 23.6934 89.9611C23.6934 89.3484 24.1913 88.8505 24.804 88.8505H60.3441C60.9568 88.8505 61.4548 89.3484 61.4548 89.9611C61.4548 90.5738 60.9568 91.0717 60.3441 91.0717Z" fill="#303E58"/>
<path d="M51.4573 91.0716C50.9242 91.0716 50.454 90.6866 50.3633 90.1442L48.8825 81.2592C48.7825 80.6539 49.1898 80.0819 49.7951 79.982C50.4003 79.8802 50.9723 80.2892 51.0723 80.8945L52.5531 89.7796C52.6531 90.3849 52.2458 90.9568 51.6405 91.0568C51.5795 91.0661 51.5184 91.0716 51.4573 91.0716Z" fill="#303E58"/>
<path d="M33.6909 91.0716C33.6298 91.0716 33.5688 91.0661 33.5077 91.0568C32.9024 90.9568 32.4933 90.383 32.5951 89.7796L34.0759 80.8945C34.1759 80.2892 34.7497 79.8802 35.3532 79.982C35.9566 80.0838 36.3675 80.6558 36.2657 81.2592L34.7849 90.1442C34.6942 90.6866 34.224 91.0716 33.6909 91.0716Z" fill="#303E58"/>
<path d="M84.0376 74.7822H8.51477C7.90208 74.7822 7.40414 74.2842 7.40414 73.6715C7.40414 73.0588 7.90208 72.5609 8.51477 72.5609H84.0376C84.6503 72.5609 85.1482 73.0588 85.1482 73.6715C85.1482 74.2842 84.6503 74.7822 84.0376 74.7822Z" fill="#303E58"/>
<path d="M14.4383 67.3781C13.8256 67.3781 13.3276 66.8802 13.3276 66.2675V21.8423C13.3276 21.2296 13.8256 20.7317 14.4383 20.7317C15.051 20.7317 15.5489 21.2296 15.5489 21.8423V66.2675C15.5489 66.8802 15.051 67.3781 14.4383 67.3781Z" fill="#303E58"/>
<path d="M70.7101 67.3784C70.0974 67.3784 69.5994 66.8805 69.5994 66.2678V48.4977C69.5994 47.885 70.0974 47.3871 70.7101 47.3871C71.3228 47.3871 71.8207 47.885 71.8207 48.4977V66.2678C71.8207 66.8805 71.3228 67.3784 70.7101 67.3784Z" fill="#303E58"/>
<path d="M70.7101 17.0297C70.0974 17.0297 69.5995 16.5317 69.5995 15.919V2.22126H29.2466C28.6339 2.22126 28.136 1.72333 28.136 1.11063C28.136 0.497932 28.6339 0 29.2466 0H70.7101C71.3228 0 71.8208 0.497932 71.8208 1.11063V15.919C71.8208 16.5317 71.3228 17.0297 70.7101 17.0297Z" fill="#303E58"/>
<path d="M29.2465 17.0296H14.4381C13.9883 17.0296 13.5848 16.7594 13.4126 16.3447C13.2405 15.9301 13.3349 15.4525 13.6533 15.1341L28.4617 0.325757C28.7801 0.00737612 29.2576 -0.0870274 29.6723 0.0851202C30.0869 0.257268 30.3572 0.660796 30.3572 1.1106V15.919C30.3572 16.5317 29.8592 17.0296 29.2465 17.0296ZM17.1203 14.8084H28.1359V3.79277L17.1203 14.8084Z" fill="#303E58"/>
<path d="M89.9611 21.4721C89.3484 21.4721 88.8504 20.9742 88.8504 20.3615C88.8504 16.8908 86.0276 14.0679 82.5569 14.0679C81.9442 14.0679 81.4463 13.57 81.4463 12.9573C81.4463 12.3446 81.9442 11.8467 82.5569 11.8467C87.2511 11.8467 91.0717 15.6672 91.0717 20.3615C91.0717 20.9742 90.5738 21.4721 89.9611 21.4721Z" fill="#303E58"/>
<path d="M60.3442 51.0891C59.7315 51.0891 59.2335 50.5912 59.2335 49.9785C59.2335 46.5077 56.4107 43.6849 52.94 43.6849C52.3273 43.6849 51.8293 43.187 51.8293 42.5743C51.8293 41.9616 52.3273 41.4636 52.94 41.4636C57.6342 41.4636 61.4548 45.2842 61.4548 49.9785C61.4548 50.5912 60.9569 51.0891 60.3442 51.0891Z" fill="#303E58"/>
<path d="M48.4974 55.5317C48.2086 55.5317 47.9236 55.4188 47.7126 55.206C47.4053 54.8987 47.3053 54.4396 47.4571 54.0305L51.8996 42.1838C51.9552 42.0357 52.0422 41.9006 52.1551 41.7896L81.7719 12.1728C82.205 11.7396 82.9084 11.7396 83.3434 12.1728C83.7765 12.6059 83.7765 13.3093 83.3434 13.7443L53.8951 43.1889L50.3929 52.5238L59.7277 49.0216L89.1742 19.5751C89.6073 19.142 90.3107 19.142 90.7457 19.5751C91.1789 20.0083 91.1789 20.7117 90.7457 21.1466L61.129 50.7634C61.016 50.8764 60.8828 50.9615 60.7347 51.0189L48.888 55.4614C48.7602 55.5095 48.6288 55.5317 48.4974 55.5317Z" fill="#303E58"/>
<path d="M52.8065 53.9175C52.1938 53.9175 51.6959 53.4195 51.6959 52.8068C51.6959 51.9183 50.9999 51.2224 50.1114 51.2224C49.4987 51.2224 49.0007 50.7244 49.0007 50.1117C49.0007 49.499 49.4987 49.0011 50.1114 49.0011C52.2105 49.0011 53.9171 50.7078 53.9171 52.8068C53.9171 53.4195 53.4192 53.9175 52.8065 53.9175Z" fill="#303E58"/>
<path d="M85.5186 25.9144C85.2335 25.9144 84.9503 25.8052 84.7337 25.5887L81.772 22.627C81.3389 22.1938 81.3389 21.4904 81.772 21.0554C82.2052 20.6223 82.9086 20.6223 83.3436 21.0554L86.3053 24.0171C86.7384 24.4503 86.7384 25.1537 86.3053 25.5887C86.0868 25.8052 85.8036 25.9144 85.5186 25.9144Z" fill="#303E58"/>
<path d="M60.3441 25.9146H27.7656C27.1529 25.9146 26.655 25.4167 26.655 24.804C26.655 24.1913 27.1529 23.6934 27.7656 23.6934H60.3441C60.9568 23.6934 61.4547 24.1913 61.4547 24.804C61.4547 25.4167 60.9568 25.9146 60.3441 25.9146Z" fill="#979FAF"/>
<path d="M32.2083 37.7616H23.3232C22.7105 37.7616 22.2126 37.2636 22.2126 36.6509C22.2126 36.0382 22.7105 35.5403 23.3232 35.5403H32.2083C32.821 35.5403 33.3189 36.0382 33.3189 36.6509C33.3189 37.2636 32.821 37.7616 32.2083 37.7616Z" fill="#979FAF"/>
<path d="M27.7658 55.5316H23.3232C22.7105 55.5316 22.2126 55.0336 22.2126 54.4209C22.2126 53.8082 22.7105 53.3103 23.3232 53.3103H27.7658C28.3785 53.3103 28.8764 53.8082 28.8764 54.4209C28.8764 55.0336 28.3785 55.5316 27.7658 55.5316Z" fill="#979FAF"/>
<path d="M41.0933 55.5316H35.1699C34.5572 55.5316 34.0593 55.0336 34.0593 54.4209C34.0593 53.8082 34.5572 53.3103 35.1699 53.3103H41.0933C41.706 53.3103 42.2039 53.8082 42.2039 54.4209C42.2039 55.0336 41.706 55.5316 41.0933 55.5316Z" fill="#979FAF"/>
<path d="M44.055 46.6466H23.3232C22.7105 46.6466 22.2126 46.1486 22.2126 45.5359C22.2126 44.9232 22.7105 44.4253 23.3232 44.4253H44.055C44.6677 44.4253 45.1656 44.9232 45.1656 45.5359C45.1656 46.1486 44.6677 46.6466 44.055 46.6466Z" fill="#979FAF"/>
<path d="M47.0167 64.4163H23.3232C22.7105 64.4163 22.2126 63.9184 22.2126 63.3057C22.2126 62.693 22.7105 62.1951 23.3232 62.1951H47.0167C47.6294 62.1951 48.1273 62.693 48.1273 63.3057C48.1273 63.9184 47.6294 64.4163 47.0167 64.4163Z" fill="#979FAF"/>
<path d="M51.4594 37.7616H39.6127C39 37.7616 38.502 37.2636 38.502 36.6509C38.502 36.0382 39 35.5403 39.6127 35.5403H51.4594C52.0721 35.5403 52.57 36.0382 52.57 36.6509C52.57 37.2636 52.0721 37.7616 51.4594 37.7616Z" fill="#979FAF"/>
</g>
<g clip-path="url(#clip1)">
<path d="M105.702 88.8784C106.165 89.3285 106.44 89.9536 106.44 90.6413C106.44 92.0165 105.315 93.1417 103.939 93.1417C103.688 93.1417 103.451 93.1042 103.213 93.0417C102.813 92.9167 102.463 92.7042 102.175 92.4166L102.012 92.2416L95.2825 85.5153C92.7307 87.1781 89.6911 88.1408 86.4263 88.1408C78.2831 88.1408 71.5409 82.1647 70.3526 74.3632C70.2275 73.5506 70.165 72.7254 70.165 71.8878C70.165 62.9111 77.4451 55.6348 86.4263 55.6348C88.6404 55.6348 90.7544 56.0848 92.6807 56.885C98.5598 59.3355 102.688 65.124 102.688 71.8878C102.688 75.801 101.299 79.3892 99.0101 82.1897L105.527 88.7159L105.702 88.8784ZM97.6842 71.8878C97.6842 65.6741 92.6432 60.6357 86.4263 60.6357C80.2095 60.6357 75.1685 65.6741 75.1685 71.8878C75.1685 78.1014 80.2095 83.1399 86.4263 83.1399C92.6432 83.1399 97.6842 78.1014 97.6842 71.8878Z" fill="#5DFAF0"/>
<path d="M86.4263 83.1399C92.6439 83.1399 97.6842 78.1022 97.6842 71.8878C97.6842 65.6735 92.6439 60.6357 86.4263 60.6357C80.2088 60.6357 75.1685 65.6735 75.1685 71.8878C75.1685 78.1022 80.2088 83.1399 86.4263 83.1399Z" fill="white"/>
<path d="M86.4264 84.0774C79.7014 84.0774 74.2304 78.6092 74.2304 71.8876C74.2304 65.1661 79.7014 59.6979 86.4264 59.6979C93.1514 59.6979 98.6224 65.1661 98.6224 71.8876C98.6224 78.6092 93.1514 84.0774 86.4264 84.0774ZM86.4264 61.5732C80.7365 61.5732 76.1067 66.2006 76.1067 71.8876C76.1067 77.5746 80.7365 82.2021 86.4264 82.2021C92.1163 82.2021 96.7461 77.5746 96.7461 71.8876C96.7461 66.2006 92.1163 61.5732 86.4264 61.5732Z" fill="#303E58"/>
<path d="M103.939 94.0795C103.627 94.0795 103.312 94.0373 102.975 93.9482C102.961 93.9451 102.947 93.9404 102.935 93.9357C102.391 93.7669 101.912 93.4778 101.512 93.0777C101.504 93.0699 101.496 93.0621 101.488 93.0527L101.338 92.8902L95.1465 86.7015C92.5087 88.2596 89.5113 89.0785 86.4263 89.0785C82.2891 89.0785 78.2894 87.5892 75.1669 84.8856C72.0757 82.2101 70.0368 78.5234 69.4254 74.504C69.2941 73.6538 69.2268 72.7724 69.2268 71.8878C69.2268 62.4095 76.9432 54.6971 86.4263 54.6971C88.7029 54.6971 90.9279 55.1425 93.0403 56.0193C93.0403 56.0193 93.0403 56.0193 93.0419 56.0193C99.4714 58.6995 103.626 64.9272 103.626 71.8878C103.626 75.562 102.434 79.1595 100.258 82.1116L106.178 88.0393L106.34 88.1893C106.346 88.1956 106.353 88.2002 106.357 88.2065C107.016 88.8472 107.378 89.7115 107.378 90.6413C107.378 92.537 105.835 94.0795 103.939 94.0795ZM103.473 92.14C103.645 92.1838 103.793 92.2041 103.939 92.2041C104.8 92.2041 105.502 91.5024 105.502 90.6413C105.502 90.2256 105.344 89.8412 105.055 89.5583L104.889 89.4052C104.88 89.3973 104.87 89.388 104.861 89.3786L98.344 82.8524C98.0047 82.5117 97.9766 81.9694 98.2815 81.5975C100.519 78.861 101.75 75.4135 101.75 71.8878C101.75 65.6867 98.0485 60.1388 92.3195 57.7508C90.437 56.9694 88.4528 56.5725 86.4263 56.5725C77.9767 56.5725 71.1031 63.4425 71.1031 71.8878C71.1031 72.6755 71.1626 73.4616 71.2798 74.2211C71.8255 77.8014 73.6409 81.0849 76.3959 83.4697C79.1775 85.8764 82.7394 87.2032 86.4263 87.2032C89.4019 87.2032 92.2882 86.3483 94.7697 84.7309C95.1418 84.4886 95.6312 84.5402 95.9455 84.8528L102.675 91.579C102.683 91.5868 102.691 91.5946 102.699 91.604L102.849 91.765C103.024 91.9369 103.233 92.0635 103.473 92.14Z" fill="#303E58"/>
</g>
<defs>
<clipPath id="clip0">
<rect width="91.0716" height="91.0716" fill="white"/>
</clipPath>
<clipPath id="clip1">
<rect width="38.1516" height="39.3823" fill="white" transform="translate(69.2268 54.6971)"/>
</clipPath>
</defs>
</svg>
