<svg width="117" height="116" viewBox="0 0 117 116" fill="none" xmlns="http://www.w3.org/2000/svg">
<path d="M71.6202 90.5768C96.6828 90.5768 117 70.3005 117 45.2884C117 20.2763 96.6828 0 71.6202 0C46.5577 0 26.2404 20.2763 26.2404 45.2884C26.2404 70.3005 46.5577 90.5768 71.6202 90.5768Z" fill="#EBEDF0"/>
<path d="M74.7545 71.5565C74.7545 74.2809 80.6418 76.4801 87.9105 76.4801C95.1791 76.4801 101.066 74.2809 101.066 71.5565V79.7624V87.9683V96.1742C101.066 98.8986 95.1791 101.098 87.9105 101.098C87.3513 101.098 86.8087 101.081 86.266 101.051C86.266 101.051 80.3787 100.966 79.688 100.146V92.8919V84.686C79.688 83.1268 77.764 81.7483 74.7545 80.8456V74.8389V71.5565Z" fill="#5DFAF0"/>
<path d="M74.7545 71.5571V63.3512C74.7545 66.0756 80.6418 68.2747 87.9105 68.2747C95.1791 68.2747 101.066 66.0756 101.066 63.3512V71.5571C101.066 74.2815 95.1791 76.4806 87.9105 76.4806C80.6418 76.4806 74.7545 74.2815 74.7545 71.5571Z" fill="#5DFAF0"/>
<path d="M53.3765 89.6092V84.6857C53.3765 87.41 59.2638 89.6092 66.5325 89.6092C73.8011 89.6092 79.6884 87.41 79.6884 84.6857V92.8916V100.146V101.097V109.303C79.6884 112.028 73.8011 114.227 66.5325 114.227C59.2638 114.227 53.3765 112.028 53.3765 109.303V97.8151V89.6092Z" fill="#EBEDF0"/>
<path d="M79.6884 84.6853C79.6884 87.4096 73.8011 89.6088 66.5325 89.6088C59.2638 89.6088 53.3765 87.4096 53.3765 84.6853C53.3765 82.1763 58.3922 80.1064 64.888 79.8089C65.4306 79.7761 65.9733 79.7617 66.5325 79.7617C69.6405 79.7617 72.502 80.172 74.7549 80.8449C77.7643 81.7475 79.6884 83.1261 79.6884 84.6853Z" fill="white"/>
<path d="M87.9105 68.2743C95.1763 68.2743 101.066 66.07 101.066 63.3508C101.066 60.6316 95.1763 58.4272 87.9105 58.4272C80.6446 58.4272 74.7545 60.6316 74.7545 63.3508C74.7545 66.07 80.6446 68.2743 87.9105 68.2743Z" fill="white"/>
<path d="M66.532 90.8406C62.8709 90.8406 59.4134 90.301 56.7945 89.3225C52.9484 87.8844 52.1426 86.0073 52.1426 84.6862C52.1426 83.4594 52.8498 81.6992 56.2169 80.2837C58.4719 79.3359 61.5306 78.7307 64.8299 78.581C65.3849 78.5481 65.9482 78.5317 66.5299 78.5317C69.6544 78.5317 72.6207 78.9236 75.1059 79.6662C78.8554 80.7904 80.9192 82.5731 80.9192 84.6862C80.9192 86.0073 80.1113 87.8844 76.2673 89.3225C73.6505 90.301 70.193 90.8406 66.532 90.8406ZM66.532 80.9935C65.9975 80.9935 65.4836 81.0079 64.9594 81.0386C61.9253 81.1781 59.1667 81.7136 57.1727 82.5526C55.2795 83.3486 54.6073 84.2 54.6073 84.6862C54.6073 85.2339 55.407 86.1755 57.6599 87.0166C60.0074 87.8947 63.1587 88.3788 66.5299 88.3788C69.9011 88.3788 73.0524 87.8947 75.3999 87.0166C77.6528 86.1735 78.4525 85.2339 78.4525 84.6862C78.4525 83.9907 77.1842 82.8604 74.3967 82.0254C72.1746 81.3607 69.379 80.9935 66.532 80.9935Z" fill="#303E58"/>
<path d="M66.5319 99.0462C64.1761 99.0462 61.8142 98.8103 59.699 98.3631C59.033 98.2215 58.6075 97.5691 58.7473 96.9045C58.8891 96.2398 59.5407 95.8151 60.2088 95.9546C62.1596 96.367 64.3447 96.5844 66.5319 96.5844C69.9051 96.5844 73.0543 96.1003 75.4019 95.2222C77.6548 94.3791 78.4544 93.4395 78.4544 92.8918C78.4544 92.2127 79.0074 91.6609 79.6878 91.6609C80.3682 91.6609 80.9212 92.2127 80.9212 92.8918C80.9212 94.2129 80.1133 96.09 76.2693 97.5281C73.6505 98.5067 70.1929 99.0462 66.5319 99.0462Z" fill="#303E58"/>
<path d="M66.5319 107.253C64.1761 107.253 61.8142 107.017 59.699 106.57C59.033 106.428 58.6075 105.776 58.7473 105.111C58.8891 104.446 59.5407 104.022 60.2088 104.161C62.1596 104.574 64.3447 104.791 66.5319 104.791C69.9051 104.791 73.0543 104.307 75.4019 103.429C77.6548 102.586 78.4544 101.646 78.4544 101.098C78.4544 100.419 79.0074 99.8674 79.6878 99.8674C80.3682 99.8674 80.9212 100.419 80.9212 101.098C80.9212 102.419 80.1133 104.297 76.2693 105.735C73.6505 106.713 70.1929 107.253 66.5319 107.253Z" fill="#303E58"/>
<path d="M66.532 115.457C62.8709 115.457 59.4134 114.918 56.7945 113.939C54.671 113.145 52.1426 111.697 52.1426 109.303V84.6852C52.1426 84.0062 52.6956 83.4543 53.376 83.4543C54.0564 83.4543 54.6094 84.0062 54.6094 84.6852V109.303C54.6094 109.851 55.409 110.792 57.662 111.633C60.0095 112.511 63.1607 112.996 66.532 112.996C69.9032 112.996 73.0544 112.511 75.4019 111.633C77.6549 110.79 78.4545 109.851 78.4545 109.303V84.6852C78.4545 84.0062 79.0075 83.4543 79.6879 83.4543C80.3683 83.4543 80.9213 84.0062 80.9213 84.6852V109.303C80.9213 111.697 78.3908 113.145 76.2694 113.939C73.6505 114.918 70.193 115.457 66.532 115.457Z" fill="#303E58"/>
<path d="M87.9106 69.5048C84.2496 69.5048 80.792 68.9652 78.1732 67.9867C74.3271 66.5486 73.5213 64.6715 73.5213 63.3503C73.5213 62.0292 74.3292 60.1521 78.1732 58.714C80.792 57.7355 84.2496 57.1959 87.9106 57.1959C91.5717 57.1959 95.0292 57.7355 97.6481 58.714C101.494 60.1521 102.3 62.0292 102.3 63.3503C102.3 64.6715 101.492 66.5486 97.6481 67.9867C95.0292 68.9652 91.5717 69.5048 87.9106 69.5048ZM87.9106 59.6577C84.5374 59.6577 81.3882 60.1418 79.0406 61.0199C76.7877 61.863 75.988 62.8026 75.988 63.3503C75.988 63.8981 76.7877 64.8397 79.0406 65.6808C81.3882 66.5589 84.5394 67.043 87.9106 67.043C91.2818 67.043 94.4331 66.5589 96.7806 65.6808C99.0336 64.8377 99.8332 63.8981 99.8332 63.3503C99.8332 62.8026 99.0336 61.861 96.7806 61.0199C94.4351 60.1418 91.2839 59.6577 87.9106 59.6577Z" fill="#303E58"/>
<path d="M87.9106 77.7105C84.2496 77.7105 80.792 77.171 78.1732 76.1924C74.3271 74.7543 73.5213 72.8772 73.5213 71.5561C73.5213 70.877 74.0743 70.3252 74.7547 70.3252C75.4351 70.3252 75.988 70.877 75.988 71.5561C75.988 72.1038 76.7877 73.0454 79.0406 73.8866C81.3882 74.7646 84.5394 75.2487 87.9106 75.2487C91.2818 75.2487 94.4331 74.7646 96.7806 73.8866C99.0336 73.0434 99.8332 72.1038 99.8332 71.5561C99.8332 70.877 100.386 70.3252 101.067 70.3252C101.747 70.3252 102.3 70.877 102.3 71.5561C102.3 72.8772 101.492 74.7543 97.6481 76.1924C95.0292 77.171 91.5717 77.7105 87.9106 77.7105Z" fill="#303E58"/>
<path d="M87.9109 85.9171C87.3271 85.9171 86.7659 85.9006 86.1944 85.8678C85.514 85.8268 84.996 85.2442 85.0371 84.5672C85.0782 83.8881 85.662 83.3732 86.3404 83.4102C86.8645 83.4409 87.3785 83.4553 87.9129 83.4553C91.2862 83.4553 94.4354 82.9711 96.7829 82.0931C99.0359 81.2499 99.8355 80.3104 99.8355 79.7626C99.8355 79.0836 100.388 78.5317 101.069 78.5317C101.749 78.5317 102.302 79.0836 102.302 79.7626C102.302 81.0838 101.494 82.9609 97.6504 84.399C95.0295 85.3775 91.5719 85.9171 87.9109 85.9171Z" fill="#303E58"/>
<path d="M87.9109 94.1223C87.3271 94.1223 86.7659 94.1058 86.1944 94.073C85.514 94.032 84.996 93.4494 85.0371 92.7724C85.0782 92.0933 85.662 91.5764 86.3404 91.6154C86.8645 91.6461 87.3785 91.6605 87.9129 91.6605C91.2862 91.6605 94.4354 91.1763 96.7829 90.2983C99.0359 89.4551 99.8355 88.5156 99.8355 87.9678C99.8355 87.2888 100.388 86.7369 101.069 86.7369C101.749 86.7369 102.302 87.2888 102.302 87.9678C102.302 89.289 101.494 91.1661 97.6504 92.6042C95.0295 93.5827 91.5719 94.1223 87.9109 94.1223Z" fill="#303E58"/>
<path d="M87.9109 102.329C87.3271 102.329 86.7659 102.312 86.1944 102.28C85.514 102.239 84.996 101.656 85.0371 100.979C85.0782 100.3 85.662 99.7829 86.3404 99.8219C86.8645 99.8527 87.3785 99.867 87.9129 99.867C91.2862 99.867 94.4354 99.3829 96.7829 98.5048C99.0359 97.6617 99.8355 96.7221 99.8355 96.1744V63.3508C99.8355 62.6717 100.388 62.1199 101.069 62.1199C101.749 62.1199 102.302 62.6717 102.302 63.3508V96.1744C102.302 96.8842 102.051 97.953 100.853 99.0136C100.078 99.7009 98.9989 100.306 97.6483 100.811C95.0295 101.789 91.5719 102.329 87.9109 102.329Z" fill="#303E58"/>
<path d="M74.7547 76.0699C74.0743 76.0699 73.5213 75.5181 73.5213 74.839V63.3508C73.5213 62.6717 74.0743 62.1199 74.7547 62.1199C75.4351 62.1199 75.988 62.6717 75.988 63.3508V74.839C75.988 75.5181 75.4371 76.0699 74.7547 76.0699Z" fill="#303E58"/>
<path d="M68.5302 44.5101H65.7192C62.0364 44.5101 59.041 41.5207 59.041 37.8453C59.041 37.2648 59.514 36.7927 60.0957 36.7927C60.6775 36.7927 61.1504 37.2648 61.1504 37.8453C61.1504 40.3596 63.1999 42.4065 65.7208 42.4065H68.5334C71.0527 42.4065 73.1038 40.3611 73.1038 37.8453C73.1038 35.3295 71.0543 33.2841 68.5334 33.2841H65.7192C62.0364 33.2841 59.041 30.2947 59.041 26.6194C59.041 22.944 62.0364 19.9546 65.7192 19.9546H68.5318C72.2146 19.9546 75.21 22.944 75.21 26.6194C75.21 27.1999 74.7371 27.6719 74.1553 27.6719C73.5736 27.6719 73.1006 27.1999 73.1006 26.6194C73.1006 24.1051 71.0511 22.0582 68.5302 22.0582H65.7192C63.1999 22.0582 61.1488 24.1036 61.1488 26.6194C61.1488 29.1352 63.1983 31.1806 65.7192 31.1806H68.5318C72.2146 31.1806 75.21 34.1699 75.21 37.8453C75.21 41.5207 72.213 44.5101 68.5302 44.5101Z" fill="#656B7B"/>
<path d="M67.1254 22.0583C66.5437 22.0583 66.0707 21.5863 66.0707 21.0057V16.797C66.0707 16.2164 66.5437 15.7444 67.1254 15.7444C67.7072 15.7444 68.1801 16.2164 68.1801 16.797V21.0073C68.1785 21.5879 67.7072 22.0583 67.1254 22.0583Z" fill="#656B7B"/>
<path d="M67.1254 48.7205C66.5437 48.7205 66.0707 48.2485 66.0707 47.6679V43.4576C66.0707 42.877 66.5437 42.405 67.1254 42.405C67.7072 42.405 68.1801 42.877 68.1801 43.4576V47.6679C68.1785 48.2501 67.7072 48.7205 67.1254 48.7205Z" fill="#656B7B"/>
<path d="M52.1304 56.6597C52.4593 58.3522 52.0646 59.8785 50.6997 60.9616C51.7193 62.2253 51.9002 64.0799 51.6042 65.6698C51.3082 67.2781 50.3215 68.0987 48.9236 68.9193C50.2721 71.2006 49.5486 74.286 47.2792 75.6789C48.0541 76.7621 48.2823 78.5695 47.9041 79.8332C47.5258 81.1112 46.4569 82.6068 44.502 82.6068H27.5617C25.391 82.6068 23.2367 82.098 21.2962 81.1297L20.6384 80.8035C18.6979 79.8352 16.5456 79.3265 14.3729 79.3265H12.7448V66.197V56.3499V54.7087C12.7448 54.7087 15.8365 54.7087 20.9673 54.7087C26.0981 54.7087 29.4529 46.4208 30.8342 41.5793C31.8703 37.9851 32.5774 36.6558 34.1232 36.6558C38.4318 36.6558 38.958 40.2007 38.958 42.6625C38.958 46.1582 35.7677 53.0676 35.7677 53.0676H48.9236C50.9793 53.0676 51.818 54.9549 52.1304 56.6597Z" fill="white"/>
<path d="M12.7447 66.1969V79.3263C12.7447 81.1316 11.2646 82.6087 9.45569 82.6087H4.52221C2.71327 82.6087 1.23322 81.1316 1.23322 79.3263V54.7086C1.23322 52.9033 2.71327 51.4263 4.52221 51.4263H9.45569C11.2646 51.4263 12.7447 52.9033 12.7447 54.7086V56.3498V66.1969Z" fill="#5DFAF0"/>
<path d="M9.45583 83.8391H4.52235C2.02889 83.8391 0 81.8143 0 79.3259V54.7082C0 52.2198 2.02889 50.1949 4.52235 50.1949H9.45583C11.9493 50.1949 13.9782 52.2198 13.9782 54.7082V56.3494C13.9782 57.0284 13.4252 57.5803 12.7448 57.5803C12.0644 57.5803 11.5114 57.0284 11.5114 56.3494V54.7082C11.5114 53.5778 10.5885 52.6567 9.45583 52.6567H4.52235C3.38971 52.6567 2.46674 53.5778 2.46674 54.7082V79.3259C2.46674 80.4563 3.38971 81.3774 4.52235 81.3774H9.45583C10.5885 81.3774 11.5114 80.4563 11.5114 79.3259V66.1965C11.5114 65.5174 12.0644 64.9656 12.7448 64.9656C13.4252 64.9656 13.9782 65.5174 13.9782 66.1965V79.3259C13.9782 81.8143 11.9493 83.8391 9.45583 83.8391Z" fill="#303E58"/>
<path d="M44.5001 83.8393H27.5598C25.2082 83.8393 22.8504 83.2833 20.7434 82.2309L20.0876 81.9047C18.3177 81.0226 16.3423 80.5569 14.373 80.5569H12.745C12.0645 80.5569 11.5116 80.0051 11.5116 79.326C11.5116 78.647 12.0645 78.0951 12.745 78.0951H14.373C16.7246 78.0951 19.0824 78.6511 21.1894 79.7035L21.8452 80.0297C23.6151 80.9118 25.5905 81.3775 27.5598 81.3775H44.5001C46.0418 81.3775 46.5886 79.9312 46.7202 79.4881C47.0018 78.5424 46.7983 77.1289 46.2741 76.3965C46.0768 76.1196 46.0028 75.7708 46.0685 75.4385C46.1364 75.1041 46.3399 74.8128 46.6318 74.6343C48.3174 73.5983 48.8786 71.2699 47.861 69.5487C47.6945 69.2676 47.6472 68.9312 47.7295 68.6153C47.8117 68.2993 48.0152 68.0286 48.2989 67.8624C49.6988 67.0397 50.2065 66.4551 50.3915 65.4519C50.6628 63.9933 50.4141 62.5716 49.7399 61.7367C49.5343 61.4823 49.4377 61.1541 49.4747 60.8279C49.5117 60.5017 49.6761 60.2042 49.9331 59.9991C50.8602 59.2626 51.1829 58.2471 50.9218 56.8952C50.6053 55.1678 49.9331 54.298 48.9258 54.298H35.7699C35.3506 54.298 34.9579 54.0847 34.7318 53.7318C34.5057 53.379 34.4749 52.9338 34.6496 52.5522C35.5047 50.6977 37.7268 45.3043 37.7268 42.662C37.7268 38.4524 35.9076 37.8862 34.1254 37.8862C33.6115 37.8862 33.0976 38.1898 32.0225 41.9194C31.4778 43.8293 30.2773 47.5015 28.3594 50.6054C26.1743 54.1442 23.687 55.9392 20.9695 55.9392H12.745C12.0645 55.9392 11.5116 55.3874 11.5116 54.7083C11.5116 54.0293 12.0645 53.4774 12.745 53.4774H20.9674C24.7991 53.4774 28.0387 46.886 29.6483 41.2424C30.6309 37.8349 31.5251 35.4244 34.1234 35.4244C36.8902 35.4244 40.1915 36.6799 40.1915 42.662C40.1915 45.2818 38.6231 49.4791 37.6467 51.8363H48.9238C51.1952 51.8363 52.8068 53.5144 53.3434 56.4377C53.6969 58.2594 53.3187 59.8965 52.2703 61.1458C52.9322 62.4732 53.1378 64.1718 52.8151 65.895C52.4985 67.6244 51.5365 68.6399 50.4881 69.3825C51.2857 71.6945 50.6279 74.3656 48.8498 76.0232C49.3596 77.3053 49.4685 78.8993 49.0841 80.1856C48.5887 81.8699 47.0902 83.8393 44.5001 83.8393Z" fill="#303E58"/>
</svg>
