<svg width="18" height="17" viewBox="0 0 18 17" fill="none" xmlns="http://www.w3.org/2000/svg">
<path d="M16.2306 1.77481L16.2322 1.77641C17.0793 2.62353 17.5 3.64409 17.5 4.87714C17.5 5.84169 17.1793 6.87307 16.4803 7.97848C15.7603 9.11698 14.9852 10.0994 14.1561 10.9368C13.312 11.7894 11.9266 13.0648 9.98309 14.7858L9.00602 15.6223L8.02917 14.7547L8.02866 14.7543C6.53054 13.4274 5.45539 12.446 4.78425 11.8088C4.1202 11.1784 3.37624 10.401 2.55216 9.46644C1.74055 8.54605 1.20599 7.73765 0.926726 7.04767C0.641011 6.33306 0.5 5.61625 0.5 4.87714C0.5 3.64314 0.921374 2.6143 1.76784 1.76784C2.61111 0.924568 3.65558 0.5 4.94571 0.5C6.42673 0.5 7.64277 1.0607 8.62019 2.20232L9 2.64594L9.37981 2.20232C10.3575 1.06037 11.5651 0.5 13.0543 0.5C14.3442 0.5 15.3877 0.924324 16.2306 1.77481Z" stroke="black"/>
</svg>
