<svg width="235" height="138" viewBox="0 0 235 138" fill="none" xmlns="http://www.w3.org/2000/svg">
<path d="M64.0852 73.6005C64.0852 77.7128 60.2999 85.7837 60.2999 85.7837H75.2899C77.7125 85.7837 78.7345 88.0128 79.1178 89.9728C79.4963 91.9713 78.9995 93.7777 77.4097 95.046C78.621 96.5064 78.815 98.6923 78.4696 100.542C78.1289 102.425 76.9554 103.386 75.2899 104.347C76.8797 107.032 76.0091 110.65 73.3215 112.264C74.2678 113.532 74.5328 115.641 74.0833 117.145C73.6243 118.605 72.3373 120.373 70.033 120.373H49.9327C47.3587 120.373 44.7846 119.797 42.4756 118.644L41.7185 118.259C39.4094 117.106 36.8354 116.53 34.2613 116.53H33.8024C33.8024 116.453 33.8024 116.419 33.8024 116.338V104.001V85.9758V85.7837C35.4301 85.7837 38.2691 85.7837 42.0923 85.7837C48.1867 85.7837 52.1613 77.9866 53.789 72.3322C55.0382 68.1046 55.8757 66.5673 57.7306 66.5673C62.836 66.5673 64.0852 70.718 64.0852 73.6005Z" fill="white"/>
<path d="M29.0186 119.503C31.3624 119.503 33.2797 117.829 33.3899 115.699H33.85C36.4575 115.699 39.0649 116.269 41.4039 117.411L42.1708 117.791C44.5098 118.933 47.1172 119.503 49.7246 119.503H70.0855C72.4246 119.503 73.7235 117.753 74.1884 116.308C74.6437 114.824 74.3753 112.731 73.4167 111.476C76.144 109.878 77.0211 106.297 75.4106 103.639C77.0978 102.688 78.2865 101.736 78.6316 99.8722C78.9815 98.0461 78.7849 95.8776 77.5579 94.4319C79.1684 93.1764 79.6716 91.3836 79.2882 89.41C78.9048 87.4697 77.8647 85.2631 75.4106 85.2631H60.231C60.231 85.2631 64.0655 77.2738 64.0655 73.203C64.0655 70.3497 62.8001 66.2408 57.6236 66.2408C55.7447 66.2408 54.8964 67.7626 53.631 71.9475C51.9822 77.5448 47.956 85.2631 41.7826 85.2631C37.9098 85.2631 35.0339 85.2631 33.3851 85.2631C33.2749 83.1326 31.3577 81.4587 29.0138 81.4587H22.4234C20.0029 81.4587 18.0521 83.2515 18.0521 85.4534V115.509C18.0521 117.71 20.0077 119.503 22.4234 119.503H29.0186ZM113.913 134.721H52.5621H10.3832C6.16536 134.721 2.71436 131.297 2.71436 127.112V58.6319C2.71436 54.447 6.16536 51.023 10.3832 51.023H52.5621H90.9066C95.1245 51.023 98.5755 54.447 98.5755 58.6319V116.346C98.5755 118.362 99.3807 120.302 100.838 121.748L113.913 134.721Z" fill="white"/>
<path d="M232.286 9.6524V70.8716C232.286 75.0804 228.835 78.524 224.617 78.524H182.438H121.087L134.162 65.4766C135.619 64.0227 136.425 62.0713 136.425 60.0434V9.6524C136.425 5.44358 139.876 2 144.093 2H182.438H224.617C228.835 2 232.286 5.44358 232.286 9.6524ZM213.113 30.1226C213.113 21.4036 208.512 17.3048 202.07 17.3048C192.369 17.3048 187.039 24.6128 184.355 29.0512C181.671 24.6128 176.341 17.3048 166.64 17.3048C160.198 17.3048 155.597 21.3988 155.597 30.1226C155.597 44.7386 171.356 57.6329 184.355 63.2192C197.354 57.6329 213.113 44.7386 213.113 30.1226Z" fill="white"/>
<path d="M18.2588 116.355V86.1285C18.2588 83.9141 20.2413 82.111 22.6902 82.111H29.3713C31.7474 82.111 33.691 83.7945 33.8027 85.9372V86.1285V104.073V116.355C33.8027 116.432 33.8027 116.47 33.8027 116.547C33.691 118.689 31.7474 120.373 29.3713 120.373H22.6902C20.2413 120.373 18.2588 118.57 18.2588 116.355Z" fill="#B3FFFD"/>
<path d="M202.136 16.3484C208.564 16.3484 213.155 20.5064 213.155 29.3664C213.155 44.2109 197.43 57.3066 184.459 62.9802C171.488 57.3066 155.762 44.2109 155.762 29.3664C155.762 20.5112 160.354 16.3484 166.782 16.3484C176.462 16.3484 181.78 23.7706 184.459 28.2784C187.137 23.7706 192.455 16.3484 202.136 16.3484Z" fill="#B3FFFD"/>
<path d="M182.438 2H224.617C228.835 2 232.286 5.44358 232.286 9.6524V70.8716C232.286 75.0804 228.835 78.524 224.617 78.524H182.438H121.087L134.162 65.4766C135.619 64.0227 136.425 62.0713 136.425 60.0434V9.6524C136.425 5.44358 139.876 2 144.093 2H182.438Z" stroke="#303E58" stroke-width="4" stroke-miterlimit="10" stroke-linecap="round" stroke-linejoin="round"/>
<path d="M184.459 62.9799C197.429 57.4518 213.155 44.6918 213.155 30.228C213.155 21.5999 208.564 17.5438 202.136 17.5438C192.455 17.5438 187.137 24.7757 184.459 29.1678C181.78 24.7757 176.462 17.5438 166.782 17.5438C160.354 17.5438 155.762 21.5951 155.762 30.228C155.762 44.6918 171.488 57.4518 184.459 62.9799Z" stroke="#303E58" stroke-width="4" stroke-miterlimit="10" stroke-linecap="round" stroke-linejoin="round"/>
<path d="M52.5621 51.023H10.3832C6.16536 51.023 2.71436 54.4959 2.71436 58.7406V128.199C2.71436 132.444 6.16536 135.917 10.3832 135.917H52.5621H113.913L100.838 122.758C99.3807 121.292 98.5755 119.324 98.5755 117.279V58.7406C98.5755 54.4959 95.1245 51.023 90.9066 51.023H52.5621Z" stroke="#303E58" stroke-width="4" stroke-miterlimit="10" stroke-linecap="round" stroke-linejoin="round"/>
<path d="M33.8024 85.7837C35.4299 85.7837 38.2686 85.7837 42.0914 85.7837C48.1852 85.7837 52.1594 77.9866 53.787 72.3322C55.036 68.1046 55.8734 66.5673 57.7281 66.5673C62.8378 66.5673 64.0868 70.718 64.0868 73.6005C64.0868 77.7128 60.3018 85.7837 60.3018 85.7837H75.2903C77.7127 85.7837 78.7346 88.0128 79.1178 89.9728C79.4963 91.9713 78.9995 93.7777 77.4099 95.046C78.6211 96.5064 78.815 98.6923 78.4697 100.542C78.129 102.425 76.9557 103.386 75.2903 104.347C76.88 107.032 76.0094 110.65 73.3221 112.264C74.2683 113.532 74.5333 115.641 74.0838 117.145C73.6249 118.605 72.338 120.373 70.0339 120.373H49.9358C47.362 120.373 44.7882 119.797 42.4794 118.644L41.7224 118.259C39.4136 117.106 36.8398 116.53 34.266 116.53H33.8024" stroke="#303E58" stroke-width="4" stroke-miterlimit="10" stroke-linecap="round" stroke-linejoin="round"/>
<path d="M33.8027 86.1285V85.9372C33.691 83.7945 31.748 82.111 29.3727 82.111H22.6888C20.2358 82.111 18.2588 83.9141 18.2588 86.1285V116.355C18.2588 118.57 20.2406 120.373 22.6888 120.373H29.3678C31.7431 120.373 33.6861 118.689 33.7979 116.547C33.7979 116.47 33.7979 116.437 33.7979 116.355V104.073V86.1285" stroke="#303E58" stroke-width="4" stroke-miterlimit="10" stroke-linecap="round" stroke-linejoin="round"/>
</svg>
