<svg width="116" height="116" viewBox="0 0 116 116" fill="none" xmlns="http://www.w3.org/2000/svg">
<path d="M93.4667 100.933C93.4667 102.987 91.7867 104.667 89.7333 104.667H63.6H52.4H26.2667C24.2133 104.667 22.5333 102.987 22.5333 100.933V97.1999H30H93.4667V100.933Z" fill="#BBFFFE"/>
<path d="M110.528 39.5575C107.803 42.8428 103.677 44.9335 99.0667 44.9335C94.456 44.9335 90.3307 42.8428 87.6053 39.5575C89.304 36.4402 92.664 35.6002 99.0667 35.6002C105.469 35.6002 108.829 36.4402 110.528 39.5575Z" fill="#BBFFFE"/>
<path d="M69.4615 26.4908C66.7361 29.7761 62.6108 31.8668 58.0001 31.8668C53.3895 31.8668 49.2642 29.7761 46.5388 26.4908C48.2375 23.3734 51.5975 22.5334 58.0001 22.5334C64.4028 22.5334 67.7628 23.3734 69.4615 26.4908Z" fill="#BBFFFE"/>
<path d="M63.6001 104.667H52.4001V114H63.6001V104.667Z" fill="#BBFFFE"/>
<path d="M28.3947 39.5575C25.6694 42.8428 21.544 44.9335 16.9334 44.9335C12.3227 44.9335 8.19738 42.8428 5.47205 39.5575C7.17071 36.4402 10.5307 35.6002 16.9334 35.6002C23.336 35.6002 26.696 36.4402 28.3947 39.5575Z" fill="#BBFFFE"/>
<path d="M93.4666 97.2V100.933C93.4666 102.987 91.7867 104.667 89.7333 104.667H63.6H52.4H26.2667C24.2133 104.667 22.5333 102.987 22.5333 100.933V97.2V61.7333C22.5333 59.68 24.2133 58 26.2667 58H89.7333C91.7867 58 93.4666 59.68 93.4666 61.7333V97.2Z" stroke="#01163A" stroke-width="3.5" stroke-miterlimit="10" stroke-linecap="round" stroke-linejoin="round"/>
<path d="M71.0668 114H63.6001H52.4001H44.9335" stroke="#01163A" stroke-width="3.5" stroke-miterlimit="10" stroke-linecap="round" stroke-linejoin="round"/>
<path d="M93.4667 97.1999H30" stroke="#01163A" stroke-width="3.5" stroke-miterlimit="10" stroke-linecap="round" stroke-linejoin="round"/>
<path d="M63.6001 104.667V114" stroke="#01163A" stroke-width="3.5" stroke-miterlimit="10" stroke-linecap="round" stroke-linejoin="round"/>
<path d="M52.4001 104.667V114" stroke="#01163A" stroke-width="3.5" stroke-miterlimit="10" stroke-linecap="round" stroke-linejoin="round"/>
<path d="M39.3333 63.5999L28.1333 74.7999" stroke="#17A09D" stroke-width="3.5" stroke-miterlimit="10" stroke-linecap="round" stroke-linejoin="round"/>
<path d="M46.7999 67.3333L43.0665 71.0666" stroke="#17A09D" stroke-width="3.5" stroke-miterlimit="10" stroke-linecap="round" stroke-linejoin="round"/>
<path d="M37.4667 76.6666L30 84.1333" stroke="#17A09D" stroke-width="3.5" stroke-miterlimit="10" stroke-linecap="round" stroke-linejoin="round"/>
<path d="M69.4612 26.4906C71.6265 23.8959 72.9332 20.5733 72.9332 16.9333C72.9332 8.6826 66.2505 1.99994 57.9999 1.99994C49.7492 1.99994 43.0665 8.6826 43.0665 16.9333C43.0665 20.5733 44.3732 23.8959 46.5385 26.4906C49.2639 29.7759 53.3892 31.8666 57.9999 31.8666C62.6105 31.8666 66.7359 29.7759 69.4612 26.4906Z" stroke="#01163A" stroke-width="3.5" stroke-miterlimit="10" stroke-linecap="round" stroke-linejoin="round"/>
<path d="M46.5388 26.4908C48.2375 23.3734 51.5975 22.5334 58.0001 22.5334C64.4028 22.5334 67.7628 23.3734 69.4615 26.4908" stroke="#01163A" stroke-width="3.5" stroke-miterlimit="10" stroke-linecap="round" stroke-linejoin="round"/>
<path d="M63.6001 16.9334C63.6001 20.0321 61.0988 22.5334 58.0001 22.5334C54.9015 22.5334 52.4001 20.0321 52.4001 16.9334V15.0667C52.4001 11.9681 54.9015 9.46674 58.0001 9.46674C61.0988 9.46674 63.6001 11.9681 63.6001 15.0667V16.9334Z" stroke="#01163A" stroke-width="3.5" stroke-miterlimit="10" stroke-linecap="round" stroke-linejoin="round"/>
<path d="M58 37.4667V43.0667" stroke="#17A09D" stroke-width="3.5" stroke-miterlimit="10" stroke-linejoin="round"/>
<path d="M58 46.8V52.4" stroke="#17A09D" stroke-width="3.5" stroke-miterlimit="10" stroke-linejoin="round"/>
<path d="M110.528 39.5573C112.693 36.9627 114 33.64 114 30C114 21.7493 107.317 15.0667 99.0666 15.0667C90.816 15.0667 84.1333 21.7493 84.1333 30C84.1333 33.64 85.44 36.9627 87.6053 39.5573C90.3306 42.8427 94.456 44.9333 99.0666 44.9333C103.677 44.9333 107.803 42.8427 110.528 39.5573Z" stroke="#01163A" stroke-width="3.5" stroke-miterlimit="10" stroke-linecap="round" stroke-linejoin="round"/>
<path d="M5.472 39.5573C3.30667 36.9627 2 33.64 2 30C2 21.7493 8.68267 15.0667 16.9333 15.0667C25.184 15.0667 31.8667 21.7493 31.8667 30C31.8667 33.64 30.56 36.9627 28.3947 39.5573C25.6693 42.8427 21.544 44.9333 16.9333 44.9333C12.3227 44.9333 8.19733 42.8427 5.472 39.5573Z" stroke="#01163A" stroke-width="3.5" stroke-miterlimit="10" stroke-linecap="round" stroke-linejoin="round"/>
<path d="M87.6053 39.5575C89.304 36.4402 92.664 35.6002 99.0667 35.6002C105.469 35.6002 108.829 36.4402 110.528 39.5575" stroke="#01163A" stroke-width="3.5" stroke-miterlimit="10" stroke-linecap="round" stroke-linejoin="round"/>
<path d="M28.3947 39.5575C26.696 36.4402 23.336 35.6002 16.9334 35.6002C10.5307 35.6002 7.17071 36.4402 5.47205 39.5575" stroke="#01163A" stroke-width="3.5" stroke-miterlimit="10" stroke-linecap="round" stroke-linejoin="round"/>
<path d="M104.667 30.0001C104.667 33.0988 102.165 35.6001 99.0667 35.6001C95.968 35.6001 93.4667 33.0988 93.4667 30.0001V28.1334C93.4667 25.0348 95.968 22.5334 99.0667 22.5334C102.165 22.5334 104.667 25.0348 104.667 28.1334V30.0001Z" stroke="#01163A" stroke-width="3.5" stroke-miterlimit="10" stroke-linecap="round" stroke-linejoin="round"/>
<path d="M11.3334 30.0001C11.3334 33.0988 13.8347 35.6001 16.9334 35.6001C20.032 35.6001 22.5334 33.0988 22.5334 30.0001V28.1334C22.5334 25.0348 20.032 22.5334 16.9334 22.5334C13.8347 22.5334 11.3334 25.0348 11.3334 28.1334V30.0001Z" stroke="#01163A" stroke-width="3.5" stroke-miterlimit="10" stroke-linecap="round" stroke-linejoin="round"/>
<path d="M106.533 50.5334V56.1334" stroke="#17A09D" stroke-width="3.5" stroke-miterlimit="10" stroke-linejoin="round"/>
<path d="M9.46667 50.5334V56.1334" stroke="#17A09D" stroke-width="3.5" stroke-miterlimit="10" stroke-linejoin="round"/>
<path d="M106.533 59.8668V65.4668" stroke="#17A09D" stroke-width="3.5" stroke-miterlimit="10" stroke-linejoin="round"/>
<path d="M9.46667 59.8668V65.4668" stroke="#17A09D" stroke-width="3.5" stroke-miterlimit="10" stroke-linejoin="round"/>
<path d="M106.533 69.2001C106.533 72.2988 104.032 74.8001 100.933 74.8001H99.0668" stroke="#17A09D" stroke-width="3.5" stroke-miterlimit="10" stroke-linejoin="round"/>
<path d="M9.46667 69.2001C9.46667 72.2988 11.968 74.8001 15.0667 74.8001H16.9333" stroke="#17A09D" stroke-width="3.5" stroke-miterlimit="10" stroke-linejoin="round"/>
</svg>
