<svg width="114" height="95" viewBox="0 0 114 95" fill="none" xmlns="http://www.w3.org/2000/svg">
<g clip-path="url(#clip0_24:743)">
<path d="M67.64 43.4797C67.64 43.4797 64.0046 43.2214 62.4313 41.3767C62.802 35.6028 62.3594 29.5337 61.4511 23.52C63.416 23.3724 69.3663 23.52 69.3663 23.52C75.1867 23.5569 80.9516 24.3132 86.5497 25.7705C95.9848 28.39 104.901 32.9833 112.612 39.3845C106.273 63.0728 96.0219 93.1761 68.4024 93.6188C60.6541 88.9701 56.0941 82.5137 53.7028 75.0979C53.7028 75.0979 52.9035 69.7299 53.1097 65.4501C58.1122 60.0613 60.7838 53.4227 61.9146 46.1914C63.0267 48.442 66.1038 49.6226 66.1038 49.6226C66.4931 49.7494 66.9009 49.8416 67.3458 49.8993C71.535 50.4896 74.056 48.2022 75.8541 44.3467C75.9653 44.1254 75.9282 43.8671 75.7799 43.6642C75.6316 43.4797 75.3906 43.3875 75.1497 43.4244C73.7224 43.7011 71.2199 43.9962 68.2541 43.5719C68.0478 43.5327 67.8439 43.5143 67.64 43.4797ZM100.691 52.8854C100.839 52.6825 100.876 52.4242 100.783 52.2029C100.672 51.9815 100.468 51.8339 100.227 51.8155C98.7815 51.7601 96.2767 51.465 93.4963 50.3397C90.7158 49.2329 88.6953 47.7202 87.6016 46.761C87.4163 46.6134 87.1567 46.5581 86.9343 46.6503C86.7096 46.7425 86.5636 46.9639 86.5242 47.2037C86.172 51.4465 87.1915 54.6932 91.1213 56.2796C95.0533 57.85 98.04 56.1874 100.691 52.8854ZM87.1961 78.8242C87.1405 70.8897 82.898 64.454 76.6488 62.7753C70.4043 61.0966 63.4878 64.5462 59.4839 71.3901C64.4332 71.1318 67.1025 70.1334 74.1649 72.0357C81.2274 73.9173 83.0439 76.1287 87.1961 78.8242Z" fill="#BBFFFE"/>
<path d="M52.0322 40.0117C51.9766 47.9439 47.7317 54.4004 41.4849 56.0583C35.2381 57.7554 28.3424 54.2874 24.32 47.4435C29.2693 47.7018 31.9571 48.7002 39.001 46.8163C46.0634 44.9163 47.88 42.7049 52.0322 40.0117Z" fill="#BBFFFE"/>
<path d="M20.5015 26.9858C24.5772 25.8974 27.3577 27.8712 29.603 31.4868C29.7304 31.6898 29.7304 31.9665 29.603 32.1694C29.4732 32.3723 29.2485 32.5014 29.0098 32.483C27.564 32.3723 25.043 32.3723 22.1513 33.1471C19.2596 33.9219 17.0722 35.1947 15.8859 36.0064C15.682 36.1355 15.4225 36.1539 15.2 36.0433C14.9961 35.9141 14.8641 35.6928 14.8641 35.4345C15.0147 31.1917 16.4235 28.0741 20.5015 26.9858Z" fill="#BBFFFE"/>
<path d="M45.1366 20.3818C49.2146 19.2749 51.9951 21.2672 54.2381 24.8828C54.3678 25.0858 54.3678 25.344 54.2381 25.5654C54.1083 25.7683 53.8859 25.8974 53.6449 25.879C52.2013 25.7683 49.6781 25.7683 46.7887 26.5431C43.897 27.3179 41.7096 28.5907 40.521 29.4047C40.3171 29.5315 40.0576 29.5499 39.8374 29.4231C39.6335 29.3124 39.5038 29.0726 39.5038 28.8328C39.6498 24.5877 41.0585 21.4701 45.1366 20.3818Z" fill="#BBFFFE"/>
<path d="M61.4488 23.5177C60.3551 16.2311 58.5918 8.99987 56.8146 2.35894C46.9532 0.698703 36.9411 1.17833 27.4527 3.63178C18.0199 6.25126 9.10148 10.8446 1.39026 17.2457C7.72977 40.934 17.9805 71.0373 45.6 71.48C48.5473 69.7091 51.0312 67.6984 53.1096 65.4478C58.1122 60.059 60.7838 53.4204 61.9145 46.1891C62.1532 44.6027 62.3223 42.9978 62.4312 41.3744C62.802 35.6005 62.3571 29.5314 61.4488 23.5177Z" stroke="#01163A" stroke-width="3" stroke-miterlimit="10" stroke-linecap="round" stroke-linejoin="round"/>
<path d="M41.4849 56.0583C47.7317 54.3981 51.9766 47.9416 52.0322 40.0117C47.88 42.7049 46.0611 44.9163 39.001 46.8186C31.9571 48.7002 29.2693 47.7041 24.32 47.4458C28.3424 54.2874 35.2381 57.7554 41.4849 56.0583Z" stroke="#01163A" stroke-width="3" stroke-miterlimit="10" stroke-linecap="round" stroke-linejoin="round"/>
<path d="M46.7863 26.5431C49.6781 25.7683 52.199 25.7683 53.6426 25.879C53.8859 25.8974 54.106 25.7683 54.2357 25.5654C54.3655 25.344 54.3655 25.0834 54.2357 24.8828C51.9951 21.2695 49.2146 19.2772 45.1366 20.3817C41.0609 21.4701 39.6521 24.5877 39.5038 28.8305C39.5038 29.0703 39.6312 29.3101 39.8374 29.4208C40.0576 29.5476 40.3194 29.5315 40.521 29.4024C41.7073 28.5907 43.8946 27.3178 46.7863 26.5431Z" stroke="#01163A" stroke-width="3" stroke-miterlimit="10" stroke-linecap="round" stroke-linejoin="round"/>
<path d="M22.1513 33.1471C19.2596 33.9219 17.0722 35.1947 15.8859 36.0064C15.682 36.1355 15.4225 36.1539 15.2 36.0433C14.9961 35.9141 14.8641 35.6928 14.8641 35.4345C15.0124 31.1917 16.4211 28.0741 20.5015 26.9858C24.5772 25.8974 27.3577 27.8712 29.603 31.4868C29.7304 31.6898 29.7304 31.9665 29.603 32.1694C29.4732 32.3723 29.2485 32.5014 29.0098 32.483C27.564 32.3723 25.043 32.3723 22.1513 33.1471Z" stroke="#01163A" stroke-width="3" stroke-miterlimit="10" stroke-linecap="round" stroke-linejoin="round"/>
<path d="M69.3639 23.5177C75.1843 23.5546 80.9492 24.3109 86.5473 25.7682C95.9824 28.3877 104.898 32.981 112.61 39.3822C106.27 63.0705 96.0195 93.1738 68.4 93.6165C60.6517 88.9678 56.0917 82.5114 53.7004 75.0957" stroke="#01163A" stroke-width="3" stroke-miterlimit="10" stroke-linecap="round" stroke-linejoin="round"/>
<path d="M76.6488 62.7753C70.4042 61.0967 63.4878 64.5463 59.4839 71.3901C64.4332 71.1319 67.1024 70.1334 74.1649 72.0358C81.2273 73.9174 83.0439 76.131 87.1961 78.8266C87.1405 70.8897 82.8979 64.454 76.6488 62.7753Z" stroke="#01163A" stroke-width="3" stroke-miterlimit="10" stroke-linecap="round" stroke-linejoin="round"/>
<path d="M93.4985 50.3397C96.279 51.4649 98.7814 51.7601 100.23 51.8154C100.471 51.8339 100.674 51.9815 100.786 52.2028C100.878 52.4242 100.841 52.6825 100.693 52.8854C98.0423 56.1874 95.0556 57.8476 91.1281 56.2796C87.1984 54.6932 86.1789 51.4465 86.5311 47.2037C86.5681 46.9639 86.7164 46.7425 86.9412 46.6503C87.1613 46.558 87.4231 46.6134 87.6085 46.7609C88.6975 47.7202 90.718 49.2352 93.4985 50.3397Z" stroke="#01163A" stroke-width="3" stroke-miterlimit="10" stroke-linecap="round" stroke-linejoin="round"/>
<path d="M67.3434 49.897C71.5326 50.4874 74.0536 48.1999 75.8517 44.3445C75.9629 44.1231 75.9258 43.8649 75.7775 43.662C75.6292 43.4775 75.3882 43.3852 75.1473 43.4221C73.72 43.6988 71.2175 43.994 68.2517 43.5697C68.0478 43.5328 67.8416 43.5144 67.64 43.4775" stroke="#01163A" stroke-width="3" stroke-miterlimit="10" stroke-linecap="round" stroke-linejoin="round"/>
</g>
<defs>
<clipPath id="clip0_24:743">
<rect width="114" height="95" fill="white"/>
</clipPath>
</defs>
</svg>
