<svg width="109" height="110" viewBox="0 0 109 110" fill="none" xmlns="http://www.w3.org/2000/svg">
<path d="M100.283 80.969C100.443 81.2189 100.461 81.558 100.318 81.8258L87.6625 107.119C87.0734 108.333 85.8239 109.101 84.4852 109.101H47.4104L50.9804 101.979L53.1224 97.6767L60.7088 82.522C61.3157 81.3081 62.5473 80.5406 63.9039 80.5406H99.515C99.8363 80.5406 100.122 80.7012 100.283 80.969Z" fill="#BBFFFE"/>
<path d="M21.117 107.316C20.8135 106.798 20.635 106.173 20.635 105.531V101.961H31.3451H34.9151H42.0552H43.8402H50.9446L50.9803 101.979L47.4102 109.101H24.205C22.8841 109.101 21.7417 108.387 21.117 107.316Z" fill="#BBFFFE"/>
<path d="M33.505 94.9103L34.9152 101.961H31.3452C31.3452 98.9623 28.9176 96.606 25.9187 96.606H21.5276L22.7235 91.1617L24.9548 76.9709H30.5955L33.1302 93.036L33.505 94.9103Z" fill="#BBFFFE"/>
<path d="M33.1303 69.8308L30.5955 76.9709H24.9549L22.4202 69.8308H33.1303Z" fill="#BBFFFE"/>
<path d="M103.5 30C103.5 22.825 100.805 16.28 96.3775 11.3275C91.25 5.605 83.795 2 75.5 2C67.205 2 59.75 5.605 54.6225 11.3275C50.195 16.28 47.5 22.825 47.5 30C47.5 37.175 50.195 43.72 54.6225 48.6725C59.75 54.395 67.205 58 75.5 58C83.795 58 91.25 54.395 96.3775 48.6725C100.805 43.72 103.5 37.175 103.5 30Z" stroke="#01163A" stroke-width="3.5" stroke-miterlimit="10" stroke-linecap="round" stroke-linejoin="round"/>
<path d="M75.5002 70.25C88.2577 70.25 99.6503 64.3 107 55.025" stroke="#17A09D" stroke-width="3.5" stroke-miterlimit="10" stroke-linecap="round" stroke-linejoin="round"/>
<path d="M46.59 2C39.5725 9.245 35.25 19.115 35.25 30" stroke="#17A09D" stroke-width="3.5" stroke-miterlimit="10" stroke-linecap="round" stroke-linejoin="round"/>
<path d="M89.5 30C89.5 24.3475 88.66 19.0975 87.225 14.705C84.74 7.05751 80.4175 2 75.5 2C70.5825 2 66.26 7.05751 63.775 14.705C62.34 19.0975 61.5 24.3475 61.5 30C61.5 35.6525 62.34 40.9025 63.775 45.295C66.26 52.9425 70.5825 58 75.5 58C80.4175 58 84.74 52.9425 87.225 45.295C88.66 40.9025 89.5 35.6525 89.5 30Z" stroke="#01163A" stroke-width="3.5" stroke-miterlimit="10" stroke-linecap="round" stroke-linejoin="round"/>
<path d="M96.3776 11.3278C93.8401 12.7453 90.7251 13.9178 87.2251 14.7053C83.6551 15.5453 79.6826 16.0003 75.5001 16.0003C71.3176 16.0003 67.3451 15.5453 63.7751 14.7053C60.2751 13.9178 57.1601 12.7453 54.6226 11.3278" stroke="#01163A" stroke-width="3.5" stroke-miterlimit="10" stroke-linecap="round" stroke-linejoin="round"/>
<path d="M96.3776 48.6724C93.8401 47.2549 90.7251 46.0824 87.2251 45.2949C83.6551 44.4549 79.6826 43.9999 75.5001 43.9999C71.3176 43.9999 67.3451 44.4549 63.7751 45.2949C60.2751 46.0824 57.1601 47.2549 54.6226 48.6724" stroke="#01163A" stroke-width="3.5" stroke-miterlimit="10" stroke-linecap="round" stroke-linejoin="round"/>
<path d="M75.5002 2V16V30V44V58" stroke="#01163A" stroke-width="3.5" stroke-miterlimit="10" stroke-linecap="round" stroke-linejoin="round"/>
<path d="M103.5 30H89.5H75.5H61.5H47.5" stroke="#01163A" stroke-width="3.5" stroke-miterlimit="10" stroke-linecap="round" stroke-linejoin="round"/>
<path d="M47.5 107H83.8475C85.16 107 86.385 106.247 86.9625 105.057L99.37 80.2598C99.51 79.9973 99.4925 79.6648 99.335 79.4198C99.1775 79.1573 98.8975 78.9998 98.5825 78.9998H63.67C62.34 78.9998 61.1325 79.7523 60.5375 80.9423L53.1 95.7998L51 100.017L47.5 107Z" stroke="#01163A" stroke-width="3.5" stroke-miterlimit="10" stroke-linecap="round" stroke-linejoin="round"/>
<path d="M47.4999 107H24.7499C23.4549 107 22.3349 106.3 21.7224 105.25C21.4249 104.742 21.2499 104.13 21.2499 103.5V99.9999H31.7499H35.2499H42.2499H43.9999" stroke="#01163A" stroke-width="3.5" stroke-miterlimit="10" stroke-linecap="round" stroke-linejoin="round"/>
<path d="M100 54.4999H107V55.0249V61.4999" stroke="#17A09D" stroke-width="3.5" stroke-miterlimit="10" stroke-linecap="round" stroke-linejoin="round"/>
<path d="M40.2024 25.7828L35.2499 30.7353L30.2974 25.7828" stroke="#17A09D" stroke-width="3.5" stroke-miterlimit="10" stroke-linecap="round" stroke-linejoin="round"/>
<path d="M37 52.7501C37 57.5801 33.08 61.5001 28.25 61.5001C23.42 61.5001 19.5 57.5801 19.5 52.7501V47.5001C19.5 42.6701 23.42 38.7501 28.25 38.7501C33.08 38.7501 37 42.6701 37 47.5001V52.7501Z" stroke="#01163A" stroke-width="3.5" stroke-miterlimit="10" stroke-linecap="round" stroke-linejoin="round"/>
<path d="M52.7501 82.5001C52.7501 74.7651 46.485 68.5001 38.75 68.5001H33.5H23H16C8.26501 68.5001 2 74.7651 2 82.5001V98.2501C2 102.118 5.1325 105.25 9.00001 105.25H14.2325" stroke="#01163A" stroke-width="3.5" stroke-miterlimit="10" stroke-linecap="round" stroke-linejoin="round"/>
<path d="M12.5001 82.5002V94.7503H22.1251H26.4301C29.3701 94.7503 31.7501 97.0603 31.7501 100" stroke="#01163A" stroke-width="3.5" stroke-miterlimit="10" stroke-linecap="round" stroke-linejoin="round"/>
<path d="M42.2501 82.5002V93.0003" stroke="#01163A" stroke-width="3.5" stroke-miterlimit="10" stroke-linecap="round" stroke-linejoin="round"/>
<path d="M23 68.5001L25.485 75.5001H31.015L33.5 68.5001" stroke="#01163A" stroke-width="3.5" stroke-miterlimit="10" stroke-linecap="round" stroke-linejoin="round"/>
<path d="M31.015 75.5003L33.5 91.2503L33.8675 93.0878" stroke="#01163A" stroke-width="3.5" stroke-miterlimit="10" stroke-linecap="round" stroke-linejoin="round"/>
<path d="M25.4851 75.5003L23.2976 89.4128" stroke="#01163A" stroke-width="3.5" stroke-miterlimit="10" stroke-linecap="round" stroke-linejoin="round"/>
</svg>
